<svg xmlns="http://www.w3.org/2000/svg" width="24" height="24" viewBox="0 0 24 24"><defs><style>.a{fill:none;}.b{fill:#000000;}</style></defs><path class="a" d="M0,0H24V24H0Z"/><path class="b" d="M6.39,19.5H2.76C.9,19.5,0,18.64,0,16.86V2.64C0,.86.9,0,2.76,0H6.39C8.25,0,9.15.86,9.15,2.64V16.86C9.15,18.64,8.25,19.5,6.39,19.5ZM2.76,1.5c-1.08,0-1.26.27-1.26,1.14V16.86c0,.87.17,1.14,1.26,1.14H6.39c1.08,0,1.26-.27,1.26-1.14V2.64c0-.87-.17-1.14-1.26-1.14Z" transform="translate(2.25 2.25)"/><path class="b" d="M6.39,19.5H2.76C.9,19.5,0,18.64,0,16.86V2.64C0,.86.9,0,2.76,0H6.39C8.25,0,9.15.86,9.15,2.64V16.86C9.15,18.64,8.25,19.5,6.39,19.5ZM2.76,1.5c-1.08,0-1.26.27-1.26,1.14V16.86c0,.87.17,1.14,1.26,1.14H6.39c1.08,0,1.26-.27,1.26-1.14V2.64c0-.87-.17-1.14-1.26-1.14Z" transform="translate(12.6 2.25)"/></svg>