<svg xmlns="http://www.w3.org/2000/svg" width="24" height="24" viewBox="0 0 24 24"><defs><style>.a{fill:none;}.b{fill:#000000;}</style></defs><path class="a" d="M0,0H24V24H0Z"/><path class="b" d="M4.75,1.5h-4A.755.755,0,0,1,0,.75.755.755,0,0,1,.75,0h4A.755.755,0,0,1,5.5.75.755.755,0,0,1,4.75,1.5Z" transform="translate(13.75 18.75)"/><path class="b" d="M.75,5.5A.755.755,0,0,1,0,4.75v-4A.755.755,0,0,1,.75,0,.755.755,0,0,1,1.5.75v4A.755.755,0,0,1,.75,5.5Z" transform="translate(15.75 16.75)"/><path class="b" d="M5.35,10.37H5.27a.543.543,0,0,0-.18,0A5.168,5.168,0,0,1,0,5.19,5.094,5.094,0,0,1,1.51,1.53a5.183,5.183,0,0,1,8.86,3.66,5.156,5.156,0,0,1-4.99,5.18ZM5.18,1.5a3.681,3.681,0,0,0-.13,7.36,1.665,1.665,0,0,1,.32,0,3.661,3.661,0,0,0,3.5-3.68A3.7,3.7,0,0,0,5.18,1.5Z" transform="translate(6.81 1.25)"/><path class="b" d="M7.58,10.13A9.821,9.821,0,0,1,2.15,8.62,4.336,4.336,0,0,1,0,5.05,4.314,4.314,0,0,1,2.15,1.5a10.542,10.542,0,0,1,10.84,0,.755.755,0,0,1,.21,1.04.746.746,0,0,1-1.04.21,9.084,9.084,0,0,0-9.18,0A2.859,2.859,0,0,0,1.5,5.05,2.889,2.889,0,0,0,2.98,7.37,8.324,8.324,0,0,0,7.57,8.62a.755.755,0,0,1,.01,1.51Z" transform="translate(4.41 12.43)"/></svg>